<svg xmlns="http://www.w3.org/2000/svg" width="1440" height="1080" viewBox="0 0 1440 1080" role="img" aria-labelledby="title desc">
<title id="title">ISL benchmark report asset</title>
<desc id="desc">SVG report asset generated from the saved benchmark metrics and training histories.</desc>
<defs><linearGradient id="bg" x1="0%" y1="0%" x2="100%" y2="100%"><stop offset="0%" stop-color="#07101d"/><stop offset="60%" stop-color="#0b1324"/><stop offset="100%" stop-color="#081726"/></linearGradient><linearGradient id="accent" x1="0%" y1="0%" x2="100%" y2="0%"><stop offset="0%" stop-color="#22d3ee"/><stop offset="55%" stop-color="#6366f1"/><stop offset="100%" stop-color="#a855f7"/></linearGradient><linearGradient id="good" x1="0%" y1="0%" x2="100%" y2="0%"><stop offset="0%" stop-color="#4ade80"/><stop offset="100%" stop-color="#22c55e"/></linearGradient><linearGradient id="warn" x1="0%" y1="0%" x2="100%" y2="0%"><stop offset="0%" stop-color="#fbbf24"/><stop offset="100%" stop-color="#f97316"/></linearGradient></defs>
<rect x="0.0" y="0.0" width="1440.0" height="1080.0" rx="0.0" fill="url(#bg)" stroke="none" stroke-width="1.0" opacity="1.000" />
<circle cx="115.2" cy="172.8" r="150.0" fill="#22d3ee" stroke="none" stroke-width="1.0" opacity="0.100" />
<circle cx="1324.8" cy="151.2" r="180.0" fill="#6366f1" stroke="none" stroke-width="1.0" opacity="0.120" />
<circle cx="1123.2" cy="993.6" r="240.0" fill="#a855f7" stroke="none" stroke-width="1.0" opacity="0.080" />
<text x="72.0" y="68.0" fill="#f8fbff" font-family="Inter, Segoe UI, system-ui, sans-serif" font-size="40.0" font-weight="900" text-anchor="start" opacity="1.000" >Hybrid model training curves</text>
<text x="72.0" y="96.0" fill="#9fb2d0" font-family="Inter, Segoe UI, system-ui, sans-serif" font-size="15.0" font-weight="400" text-anchor="start" opacity="0.950" >The selected checkpoint was trained for 93 recorded epochs and reached its best validation score at epoch 58.</text>
<rect x="1040.0" y="38.0" width="132.0" height="92.0" rx="22.0" fill="#0b1630" stroke="#1e3358" stroke-width="1.2" opacity="0.920" />
<rect x="1040.0" y="38.0" width="8.0" height="92.0" rx="4.0" fill="url(#good)" stroke="none" stroke-width="1.0" opacity="0.980" />
<text x="1060.0" y="66.0" fill="#a9bdd9" font-family="Inter, Segoe UI, system-ui, sans-serif" font-size="11.0" font-weight="700" text-anchor="start" opacity="1.000" >Best acc</text>
<text x="1060.0" y="100.0" fill="#f8fbff" font-family="Inter, Segoe UI, system-ui, sans-serif" font-size="24.0" font-weight="900" text-anchor="start" opacity="1.000" >96.70%</text>
<rect x="1182.0" y="38.0" width="116.0" height="92.0" rx="22.0" fill="#0b1630" stroke="#1e3358" stroke-width="1.2" opacity="0.920" />
<rect x="1182.0" y="38.0" width="8.0" height="92.0" rx="4.0" fill="url(#accent)" stroke="none" stroke-width="1.0" opacity="0.980" />
<text x="1202.0" y="66.0" fill="#a9bdd9" font-family="Inter, Segoe UI, system-ui, sans-serif" font-size="11.0" font-weight="700" text-anchor="start" opacity="1.000" >Final acc</text>
<text x="1202.0" y="100.0" fill="#f8fbff" font-family="Inter, Segoe UI, system-ui, sans-serif" font-size="24.0" font-weight="900" text-anchor="start" opacity="1.000" >94.51%</text>
<rect x="1308.0" y="38.0" width="92.0" height="92.0" rx="22.0" fill="#0b1630" stroke="#1e3358" stroke-width="1.2" opacity="0.920" />
<rect x="1308.0" y="38.0" width="8.0" height="92.0" rx="4.0" fill="url(#warn)" stroke="none" stroke-width="1.0" opacity="0.980" />
<text x="1328.0" y="66.0" fill="#a9bdd9" font-family="Inter, Segoe UI, system-ui, sans-serif" font-size="11.0" font-weight="700" text-anchor="start" opacity="1.000" >Epochs</text>
<text x="1328.0" y="100.0" fill="#f8fbff" font-family="Inter, Segoe UI, system-ui, sans-serif" font-size="24.0" font-weight="900" text-anchor="start" opacity="1.000" >93</text>
<rect x="88.0" y="150.0" width="1264.0" height="380.0" rx="22.0" fill="#07101e" stroke="#1b2f50" stroke-width="1.2" opacity="0.950" />
<text x="112.0" y="180.0" fill="#f4f8ff" font-family="Inter, Segoe UI, system-ui, sans-serif" font-size="18.0" font-weight="900" text-anchor="start" opacity="1.000" >Loss trajectory</text>
<line x1="152.0" y1="488.0" x2="1332.0" y2="488.0" stroke="#1f3355" stroke-width="1.0" opacity="0.950" />
<text x="142.0" y="492.0" fill="#8ea3bf" font-family="Inter, Segoe UI, system-ui, sans-serif" font-size="11.0" font-weight="400" text-anchor="end" opacity="1.000" >0.48</text>
<line x1="152.0" y1="425.2" x2="1332.0" y2="425.2" stroke="#1f3355" stroke-width="1.0" opacity="0.950" />
<text x="142.0" y="429.2" fill="#8ea3bf" font-family="Inter, Segoe UI, system-ui, sans-serif" font-size="11.0" font-weight="400" text-anchor="end" opacity="1.000" >1.26</text>
<line x1="152.0" y1="362.4" x2="1332.0" y2="362.4" stroke="#1f3355" stroke-width="1.0" opacity="0.950" />
<text x="142.0" y="366.4" fill="#8ea3bf" font-family="Inter, Segoe UI, system-ui, sans-serif" font-size="11.0" font-weight="400" text-anchor="end" opacity="1.000" >2.04</text>
<line x1="152.0" y1="299.6" x2="1332.0" y2="299.6" stroke="#1f3355" stroke-width="1.0" opacity="0.950" />
<text x="142.0" y="303.6" fill="#8ea3bf" font-family="Inter, Segoe UI, system-ui, sans-serif" font-size="11.0" font-weight="400" text-anchor="end" opacity="1.000" >2.82</text>
<line x1="152.0" y1="236.8" x2="1332.0" y2="236.8" stroke="#1f3355" stroke-width="1.0" opacity="0.950" />
<text x="142.0" y="240.8" fill="#8ea3bf" font-family="Inter, Segoe UI, system-ui, sans-serif" font-size="11.0" font-weight="400" text-anchor="end" opacity="1.000" >3.60</text>
<line x1="152.0" y1="174.0" x2="1332.0" y2="174.0" stroke="#1f3355" stroke-width="1.0" opacity="0.950" />
<text x="142.0" y="178.0" fill="#8ea3bf" font-family="Inter, Segoe UI, system-ui, sans-serif" font-size="11.0" font-weight="400" text-anchor="end" opacity="1.000" >4.38</text>
<line x1="152.0" y1="174.0" x2="152.0" y2="488.0" stroke="#17304e" stroke-width="1.0" opacity="0.800" />
<text x="152.0" y="510.0" fill="#8ea3bf" font-family="Inter, Segoe UI, system-ui, sans-serif" font-size="11.0" font-weight="400" text-anchor="middle" opacity="1.000" >1</text>
<line x1="280.3" y1="174.0" x2="280.3" y2="488.0" stroke="#17304e" stroke-width="1.0" opacity="0.800" />
<text x="280.3" y="510.0" fill="#8ea3bf" font-family="Inter, Segoe UI, system-ui, sans-serif" font-size="11.0" font-weight="400" text-anchor="middle" opacity="1.000" >11</text>
<line x1="408.5" y1="174.0" x2="408.5" y2="488.0" stroke="#17304e" stroke-width="1.0" opacity="0.800" />
<text x="408.5" y="510.0" fill="#8ea3bf" font-family="Inter, Segoe UI, system-ui, sans-serif" font-size="11.0" font-weight="400" text-anchor="middle" opacity="1.000" >21</text>
<line x1="536.8" y1="174.0" x2="536.8" y2="488.0" stroke="#17304e" stroke-width="1.0" opacity="0.800" />
<text x="536.8" y="510.0" fill="#8ea3bf" font-family="Inter, Segoe UI, system-ui, sans-serif" font-size="11.0" font-weight="400" text-anchor="middle" opacity="1.000" >31</text>
<line x1="665.0" y1="174.0" x2="665.0" y2="488.0" stroke="#17304e" stroke-width="1.0" opacity="0.800" />
<text x="665.0" y="510.0" fill="#8ea3bf" font-family="Inter, Segoe UI, system-ui, sans-serif" font-size="11.0" font-weight="400" text-anchor="middle" opacity="1.000" >41</text>
<line x1="793.3" y1="174.0" x2="793.3" y2="488.0" stroke="#17304e" stroke-width="1.0" opacity="0.800" />
<text x="793.3" y="510.0" fill="#8ea3bf" font-family="Inter, Segoe UI, system-ui, sans-serif" font-size="11.0" font-weight="400" text-anchor="middle" opacity="1.000" >51</text>
<line x1="921.6" y1="174.0" x2="921.6" y2="488.0" stroke="#17304e" stroke-width="1.0" opacity="0.800" />
<text x="921.6" y="510.0" fill="#8ea3bf" font-family="Inter, Segoe UI, system-ui, sans-serif" font-size="11.0" font-weight="400" text-anchor="middle" opacity="1.000" >61</text>
<line x1="1049.8" y1="174.0" x2="1049.8" y2="488.0" stroke="#17304e" stroke-width="1.0" opacity="0.800" />
<text x="1049.8" y="510.0" fill="#8ea3bf" font-family="Inter, Segoe UI, system-ui, sans-serif" font-size="11.0" font-weight="400" text-anchor="middle" opacity="1.000" >71</text>
<line x1="1178.1" y1="174.0" x2="1178.1" y2="488.0" stroke="#17304e" stroke-width="1.0" opacity="0.800" />
<text x="1178.1" y="510.0" fill="#8ea3bf" font-family="Inter, Segoe UI, system-ui, sans-serif" font-size="11.0" font-weight="400" text-anchor="middle" opacity="1.000" >81</text>
<line x1="1306.3" y1="174.0" x2="1306.3" y2="488.0" stroke="#17304e" stroke-width="1.0" opacity="0.800" />
<text x="1306.3" y="510.0" fill="#8ea3bf" font-family="Inter, Segoe UI, system-ui, sans-serif" font-size="11.0" font-weight="400" text-anchor="middle" opacity="1.000" >91</text>
<line x1="152.0" y1="174.0" x2="152.0" y2="488.0" stroke="#385074" stroke-width="1.2" opacity="0.750" />
<line x1="152.0" y1="488.0" x2="1332.0" y2="488.0" stroke="#385074" stroke-width="1.2" opacity="0.750" />
<line x1="883.1" y1="174.0" x2="883.1" y2="488.0" stroke="#f59e0b" stroke-width="1.5" opacity="0.850" stroke-dasharray="7,6" />
<text x="891.1" y="190.0" fill="#fbbf24" font-family="Inter, Segoe UI, system-ui, sans-serif" font-size="11.0" font-weight="700" text-anchor="start" opacity="1.000" >best epoch 58</text>
<polyline points="152.0,200.1 164.8,260.5 177.7,334.4 190.5,378.2 203.3,409.7 216.1,422.2 229.0,436.6 241.8,441.6 254.6,419.7 267.4,433.3 280.3,445.3 293.1,439.1 305.9,436.0 318.7,448.3 331.6,453.2 344.4,444.9 357.2,455.8 370.0,448.8 382.9,449.9 395.7,465.6 408.5,454.7 421.3,449.6 434.2,459.5 447.0,462.7 459.8,463.6 472.7,454.6 485.5,464.5 498.3,463.5 511.1,458.1 524.0,464.6 536.8,458.7 549.6,466.0 562.4,469.1 575.3,468.3 588.1,464.0 600.9,467.0 613.7,463.4 626.6,467.5 639.4,470.0 652.2,468.5 665.0,453.3 677.9,470.2 690.7,472.5 703.5,469.6 716.3,465.0 729.2,462.9 742.0,469.8 754.8,470.8 767.7,478.0 780.5,454.5 793.3,472.2 806.1,459.1 819.0,477.2 831.8,460.5 844.6,473.4 857.4,480.1 870.3,483.7 883.1,475.8 895.9,465.3 908.7,473.7 921.6,478.3 934.4,465.7 947.2,460.6 960.0,458.6 972.9,476.8 985.7,471.2 998.5,468.5 1011.3,467.9 1024.2,467.8 1037.0,472.2 1049.8,472.9 1062.7,482.1 1075.5,470.6 1088.3,466.0 1101.1,472.8 1114.0,471.7 1126.8,470.8 1139.6,467.4 1152.4,461.9 1165.3,467.0 1178.1,468.2 1190.9,479.1 1203.7,469.2 1216.6,469.7 1229.4,481.3 1242.2,457.4 1255.0,479.0 1267.9,468.4 1280.7,469.1 1293.5,473.1 1306.3,473.5 1319.2,471.0 1332.0,469.4" fill="none" stroke="#22d3ee" stroke-width="3.0" stroke-linejoin="round" stroke-linecap="round" opacity="0.980" />
<polyline points="152.0,235.5 164.8,316.2 177.7,384.5 190.5,413.3 203.3,420.2 216.1,428.0 229.0,431.5 241.8,431.1 254.6,440.4 267.4,436.7 280.3,453.2 293.1,434.7 305.9,445.3 318.7,457.6 331.6,451.5 344.4,447.6 357.2,454.7 370.0,460.8 382.9,465.2 395.7,454.4 408.5,462.2 421.3,455.5 434.2,462.2 447.0,466.5 459.8,455.0 472.7,462.9 485.5,468.1 498.3,465.5 511.1,466.0 524.0,470.9 536.8,461.3 549.6,463.0 562.4,466.5 575.3,468.0 588.1,470.6 600.9,465.7 613.7,468.7 626.6,469.0 639.4,467.9 652.2,471.9 665.0,468.6 677.9,468.9 690.7,470.3 703.5,467.4 716.3,466.9 729.2,476.1 742.0,472.5 754.8,474.4 767.7,475.3 780.5,471.5 793.3,473.9 806.1,474.7 819.0,473.6 831.8,473.7 844.6,466.9 857.4,473.4 870.3,476.3 883.1,475.4 895.9,471.2 908.7,471.2 921.6,474.4 934.4,471.7 947.2,473.7 960.0,474.8 972.9,471.6 985.7,475.5 998.5,474.3 1011.3,468.5 1024.2,471.1 1037.0,473.3 1049.8,472.6 1062.7,472.9 1075.5,471.5 1088.3,465.8 1101.1,475.9 1114.0,475.8 1126.8,473.3 1139.6,476.7 1152.4,473.4 1165.3,474.2 1178.1,471.6 1190.9,470.1 1203.7,471.2 1216.6,468.2 1229.4,471.6 1242.2,473.3 1255.0,475.8 1267.9,473.6 1280.7,472.8 1293.5,473.1 1306.3,475.3 1319.2,475.2 1332.0,473.1" fill="none" stroke="#a855f7" stroke-width="3.0" stroke-linejoin="round" stroke-linecap="round" opacity="0.960" stroke-dasharray="8,5" />
<rect x="112.0" y="499.0" width="16.0" height="16.0" rx="4.0" fill="#22d3ee" stroke="none" stroke-width="1.0" opacity="1.000" />
<text x="136.0" y="513.0" fill="#dbe6f4" font-family="Inter, Segoe UI, system-ui, sans-serif" font-size="11.0" font-weight="700" text-anchor="start" opacity="1.000" >Train loss</text>
<rect x="292.0" y="499.0" width="16.0" height="16.0" rx="4.0" fill="#a855f7" stroke="none" stroke-width="1.0" opacity="1.000" />
<line x1="294.0" y1="507.0" x2="306.0" y2="507.0" stroke="#09111f" stroke-width="2.0" opacity="1.000" stroke-dasharray="8,5" />
<text x="316.0" y="513.0" fill="#dbe6f4" font-family="Inter, Segoe UI, system-ui, sans-serif" font-size="11.0" font-weight="700" text-anchor="start" opacity="1.000" >Val loss</text>
<rect x="88.0" y="570.0" width="1264.0" height="380.0" rx="22.0" fill="#07101e" stroke="#1b2f50" stroke-width="1.2" opacity="0.950" />
<text x="112.0" y="600.0" fill="#f4f8ff" font-family="Inter, Segoe UI, system-ui, sans-serif" font-size="18.0" font-weight="900" text-anchor="start" opacity="1.000" >Accuracy trajectory</text>
<line x1="152.0" y1="908.0" x2="1332.0" y2="908.0" stroke="#1f3355" stroke-width="1.0" opacity="0.950" />
<text x="142.0" y="912.0" fill="#8ea3bf" font-family="Inter, Segoe UI, system-ui, sans-serif" font-size="11.0" font-weight="400" text-anchor="end" opacity="1.000" >0.00</text>
<line x1="152.0" y1="845.2" x2="1332.0" y2="845.2" stroke="#1f3355" stroke-width="1.0" opacity="0.950" />
<text x="142.0" y="849.2" fill="#8ea3bf" font-family="Inter, Segoe UI, system-ui, sans-serif" font-size="11.0" font-weight="400" text-anchor="end" opacity="1.000" >0.20</text>
<line x1="152.0" y1="782.4" x2="1332.0" y2="782.4" stroke="#1f3355" stroke-width="1.0" opacity="0.950" />
<text x="142.0" y="786.4" fill="#8ea3bf" font-family="Inter, Segoe UI, system-ui, sans-serif" font-size="11.0" font-weight="400" text-anchor="end" opacity="1.000" >0.40</text>
<line x1="152.0" y1="719.6" x2="1332.0" y2="719.6" stroke="#1f3355" stroke-width="1.0" opacity="0.950" />
<text x="142.0" y="723.6" fill="#8ea3bf" font-family="Inter, Segoe UI, system-ui, sans-serif" font-size="11.0" font-weight="400" text-anchor="end" opacity="1.000" >0.60</text>
<line x1="152.0" y1="656.8" x2="1332.0" y2="656.8" stroke="#1f3355" stroke-width="1.0" opacity="0.950" />
<text x="142.0" y="660.8" fill="#8ea3bf" font-family="Inter, Segoe UI, system-ui, sans-serif" font-size="11.0" font-weight="400" text-anchor="end" opacity="1.000" >0.80</text>
<line x1="152.0" y1="594.0" x2="1332.0" y2="594.0" stroke="#1f3355" stroke-width="1.0" opacity="0.950" />
<text x="142.0" y="598.0" fill="#8ea3bf" font-family="Inter, Segoe UI, system-ui, sans-serif" font-size="11.0" font-weight="400" text-anchor="end" opacity="1.000" >1.00</text>
<line x1="152.0" y1="594.0" x2="152.0" y2="908.0" stroke="#17304e" stroke-width="1.0" opacity="0.800" />
<text x="152.0" y="930.0" fill="#8ea3bf" font-family="Inter, Segoe UI, system-ui, sans-serif" font-size="11.0" font-weight="400" text-anchor="middle" opacity="1.000" >1</text>
<line x1="280.3" y1="594.0" x2="280.3" y2="908.0" stroke="#17304e" stroke-width="1.0" opacity="0.800" />
<text x="280.3" y="930.0" fill="#8ea3bf" font-family="Inter, Segoe UI, system-ui, sans-serif" font-size="11.0" font-weight="400" text-anchor="middle" opacity="1.000" >11</text>
<line x1="408.5" y1="594.0" x2="408.5" y2="908.0" stroke="#17304e" stroke-width="1.0" opacity="0.800" />
<text x="408.5" y="930.0" fill="#8ea3bf" font-family="Inter, Segoe UI, system-ui, sans-serif" font-size="11.0" font-weight="400" text-anchor="middle" opacity="1.000" >21</text>
<line x1="536.8" y1="594.0" x2="536.8" y2="908.0" stroke="#17304e" stroke-width="1.0" opacity="0.800" />
<text x="536.8" y="930.0" fill="#8ea3bf" font-family="Inter, Segoe UI, system-ui, sans-serif" font-size="11.0" font-weight="400" text-anchor="middle" opacity="1.000" >31</text>
<line x1="665.0" y1="594.0" x2="665.0" y2="908.0" stroke="#17304e" stroke-width="1.0" opacity="0.800" />
<text x="665.0" y="930.0" fill="#8ea3bf" font-family="Inter, Segoe UI, system-ui, sans-serif" font-size="11.0" font-weight="400" text-anchor="middle" opacity="1.000" >41</text>
<line x1="793.3" y1="594.0" x2="793.3" y2="908.0" stroke="#17304e" stroke-width="1.0" opacity="0.800" />
<text x="793.3" y="930.0" fill="#8ea3bf" font-family="Inter, Segoe UI, system-ui, sans-serif" font-size="11.0" font-weight="400" text-anchor="middle" opacity="1.000" >51</text>
<line x1="921.6" y1="594.0" x2="921.6" y2="908.0" stroke="#17304e" stroke-width="1.0" opacity="0.800" />
<text x="921.6" y="930.0" fill="#8ea3bf" font-family="Inter, Segoe UI, system-ui, sans-serif" font-size="11.0" font-weight="400" text-anchor="middle" opacity="1.000" >61</text>
<line x1="1049.8" y1="594.0" x2="1049.8" y2="908.0" stroke="#17304e" stroke-width="1.0" opacity="0.800" />
<text x="1049.8" y="930.0" fill="#8ea3bf" font-family="Inter, Segoe UI, system-ui, sans-serif" font-size="11.0" font-weight="400" text-anchor="middle" opacity="1.000" >71</text>
<line x1="1178.1" y1="594.0" x2="1178.1" y2="908.0" stroke="#17304e" stroke-width="1.0" opacity="0.800" />
<text x="1178.1" y="930.0" fill="#8ea3bf" font-family="Inter, Segoe UI, system-ui, sans-serif" font-size="11.0" font-weight="400" text-anchor="middle" opacity="1.000" >81</text>
<line x1="1306.3" y1="594.0" x2="1306.3" y2="908.0" stroke="#17304e" stroke-width="1.0" opacity="0.800" />
<text x="1306.3" y="930.0" fill="#8ea3bf" font-family="Inter, Segoe UI, system-ui, sans-serif" font-size="11.0" font-weight="400" text-anchor="middle" opacity="1.000" >91</text>
<line x1="152.0" y1="594.0" x2="152.0" y2="908.0" stroke="#385074" stroke-width="1.2" opacity="0.750" />
<line x1="152.0" y1="908.0" x2="1332.0" y2="908.0" stroke="#385074" stroke-width="1.2" opacity="0.750" />
<line x1="883.1" y1="594.0" x2="883.1" y2="908.0" stroke="#f59e0b" stroke-width="1.5" opacity="0.850" stroke-dasharray="7,6" />
<text x="891.1" y="610.0" fill="#fbbf24" font-family="Inter, Segoe UI, system-ui, sans-serif" font-size="11.0" font-weight="700" text-anchor="start" opacity="1.000" >best epoch 58</text>
<polyline points="152.0,880.7 164.8,833.4 177.7,760.9 190.5,713.7 203.3,680.5 216.1,666.1 229.0,649.5 241.8,646.0 254.6,661.6 267.4,647.2 280.3,637.7 293.1,642.4 305.9,642.9 318.7,629.8 331.6,628.0 344.4,633.1 357.2,623.2 370.0,629.7 382.9,626.1 395.7,614.2 408.5,622.1 421.3,626.1 434.2,619.4 447.0,614.9 459.8,614.4 472.7,621.4 485.5,613.7 498.3,612.3 511.1,618.9 524.0,614.2 536.8,616.8 549.6,613.0 562.4,610.2 575.3,609.5 588.1,612.9 600.9,610.2 613.7,614.4 626.6,610.4 639.4,609.3 652.2,610.8 665.0,622.7 677.9,608.5 690.7,606.6 703.5,609.8 716.3,613.6 729.2,614.9 742.0,608.9 754.8,609.2 767.7,602.2 780.5,623.1 793.3,606.9 806.1,617.5 819.0,604.6 831.8,616.3 844.6,608.0 857.4,601.8 870.3,599.1 883.1,605.8 895.9,614.3 908.7,606.7 921.6,603.5 934.4,612.5 947.2,617.0 960.0,617.4 972.9,604.8 985.7,607.5 998.5,611.6 1011.3,612.2 1024.2,610.6 1037.0,608.2 1049.8,607.0 1062.7,599.9 1075.5,609.6 1088.3,614.8 1101.1,608.3 1114.0,608.2 1126.8,607.8 1139.6,613.1 1152.4,618.7 1165.3,612.6 1178.1,613.1 1190.9,602.7 1203.7,610.7 1216.6,610.1 1229.4,601.2 1242.2,622.1 1255.0,603.5 1267.9,610.6 1280.7,611.7 1293.5,608.7 1306.3,607.1 1319.2,611.1 1332.0,610.9" fill="none" stroke="#4ade80" stroke-width="3.0" stroke-linejoin="round" stroke-linecap="round" opacity="0.980" />
<polyline points="152.0,861.4 164.8,801.0 177.7,709.6 190.5,687.2 203.3,673.4 216.1,673.4 229.0,654.4 241.8,650.9 254.6,652.7 267.4,644.0 280.3,630.2 293.1,645.8 305.9,640.6 318.7,619.9 331.6,637.1 344.4,642.3 357.2,632.0 370.0,621.6 382.9,613.0 395.7,623.3 408.5,619.9 421.3,626.8 434.2,623.3 447.0,613.0 459.8,633.7 472.7,618.2 485.5,613.0 498.3,616.4 511.1,611.3 524.0,611.3 536.8,621.6 549.6,614.7 562.4,621.6 575.3,611.3 588.1,611.3 600.9,614.7 613.7,607.8 626.6,607.8 639.4,614.7 652.2,609.5 665.0,614.7 677.9,609.5 690.7,611.3 703.5,614.7 716.3,614.7 729.2,609.5 742.0,609.5 754.8,606.1 767.7,607.8 780.5,614.7 793.3,607.8 806.1,607.8 819.0,609.5 831.8,609.5 844.6,616.4 857.4,609.5 870.3,606.1 883.1,604.4 895.9,611.3 908.7,613.0 921.6,609.5 934.4,611.3 947.2,609.5 960.0,607.8 972.9,611.3 985.7,606.1 998.5,606.1 1011.3,618.2 1024.2,609.5 1037.0,607.8 1049.8,607.8 1062.7,607.8 1075.5,614.7 1088.3,614.7 1101.1,604.4 1114.0,609.5 1126.8,607.8 1139.6,606.1 1152.4,613.0 1165.3,609.5 1178.1,611.3 1190.9,614.7 1203.7,614.7 1216.6,614.7 1229.4,613.0 1242.2,611.3 1255.0,609.5 1267.9,607.8 1280.7,609.5 1293.5,611.3 1306.3,609.5 1319.2,607.8 1332.0,611.3" fill="none" stroke="#f59e0b" stroke-width="3.0" stroke-linejoin="round" stroke-linecap="round" opacity="0.980" stroke-dasharray="8,5" />
<rect x="112.0" y="919.0" width="16.0" height="16.0" rx="4.0" fill="#4ade80" stroke="none" stroke-width="1.0" opacity="1.000" />
<text x="136.0" y="933.0" fill="#dbe6f4" font-family="Inter, Segoe UI, system-ui, sans-serif" font-size="11.0" font-weight="700" text-anchor="start" opacity="1.000" >Train acc</text>
<rect x="292.0" y="919.0" width="16.0" height="16.0" rx="4.0" fill="#f59e0b" stroke="none" stroke-width="1.0" opacity="1.000" />
<line x1="294.0" y1="927.0" x2="306.0" y2="927.0" stroke="#09111f" stroke-width="2.0" opacity="1.000" stroke-dasharray="8,5" />
<text x="316.0" y="933.0" fill="#dbe6f4" font-family="Inter, Segoe UI, system-ui, sans-serif" font-size="11.0" font-weight="700" text-anchor="start" opacity="1.000" >Val acc</text>
<text x="88.0" y="1014.0" fill="#8fa6c7" font-family="Inter, Segoe UI, system-ui, sans-serif" font-size="13.0" font-weight="400" text-anchor="start" opacity="1.000" >Best validation accuracy: 96.70% at epoch 58 | Final validation accuracy: 94.51% | Final macro-F1: 93.54%</text>
</svg>